<?xml version="1.0" standalone="no"?><!DOCTYPE svg PUBLIC "-//W3C//DTD SVG 1.1//EN" "http://www.w3.org/Graphics/SVG/1.1/DTD/svg11.dtd"><svg t="1586514161468" class="icon" viewBox="0 0 1024 1024" version="1.1" xmlns="http://www.w3.org/2000/svg" p-id="1429" xmlns:xlink="http://www.w3.org/1999/xlink" width="200" height="200"><defs><style type="text/css"></style></defs><path d="M113 489.5C113 268.9 291.6 90 512 90s399 178.9 399 399.5S732.4 889 512 889 113 710.1 113 489.5z" fill="#333F50" p-id="1430"></path><path d="M194.2 607.6l0.5 1.8 0.2 1.8-0.1 1.8-0.4 1.7-0.6 1.6-0.9 1.5-1.1 1.4-1.3 1.2-1.5 1-1.7 0.8-1.8 0.5-1.8 0.2-1.8-0.1-1.7-0.4-1.7-0.6-1.5-0.9-1.4-1.1-1.2-1.3-1-1.5-0.8-1.7-1-2.9-1-2.9-0.9-2.9-0.9-2.9-0.9-2.9-0.9-2.9-0.9-2.9-0.8-2.9-0.8-2.9-0.8-2.9-0.8-2.9-0.7-2.9-0.7-2.9-0.7-2.9-0.7-2.9-0.6-2.9-0.6-2.9-0.6-2.9-0.6-2.9-0.5-2.9-0.5-2.9-0.5-2.9-0.5-2.9-0.4-3-0.4-3-0.4-3-0.4-3-0.4-3-0.3-3-0.3-3-0.3-3-0.3-3-0.2-3-0.2-3-0.2-3-0.2-3-0.1-3-0.1-3-0.1-3-0.1-3v-15l0.1-3 0.1-3 0.1-3 0.1-3 0.2-3 0.2-3 0.2-3 0.2-3 0.3-3 0.3-3 0.3-3 0.3-3 0.4-2.9 0.4-2.9 0.4-2.9 0.4-2.9 0.4-2.9 0.5-2.9 0.5-2.9 0.5-2.9 0.5-2.9 0.6-2.9 0.6-2.9 0.6-2.9 0.6-2.9 0.7-2.9 0.7-2.9 0.7-2.9 0.7-2.9 0.7-2.9 0.8-2.9 0.8-2.9 0.8-2.9 0.8-2.9 0.9-2.9 0.9-2.9 0.9-2.8 0.9-2.8 1-2.8 1-2.8 1-2.8 1-2.8 1-2.8 1.1-2.8 1.1-2.8 1.1-2.8 1.1-2.8 1.2-2.8 1.2-2.8 1.2-2.8 1.2-2.8 1.3-2.7 1.3-2.7 2.6-5.4 1.4-2.8 1.4-2.7 1.4-2.7 1.4-2.7 1.4-2.7 1.5-2.6 1.5-2.6 1.5-2.6 1.5-2.6 1.5-2.6 1.6-2.6 1.6-2.6 1.6-2.5 1.6-2.5 1.6-2.5 1.6-2.5 1.7-2.5 1.7-2.5 1.7-2.5 1.7-2.4 1.7-2.4 1.8-2.4 1.8-2.4 1.8-2.4 1.8-2.4 1.8-2.4 1.9-2.3 1.9-2.3 1.9-2.3 1.9-2.3 1.9-2.3 1.9-2.3 2-2.2 2-2.2 2-2.2 2-2.2 2-2.2 2-2.2 2.1-2.1 2.1-2.1 2.1-2.1 2.1-2.1 2.1-2.1 2.1-2.1 2.2-2 2.2-2 2.2-2 2.2-2 2.2-2 2.2-2 2.3-1.9 2.3-1.9 2.3-1.9 2.3-1.9 2.3-1.9 2.3-1.9 2.3-1.8 2.4-1.8 2.4-1.8 2.4-1.8 2.4-1.8 2.4-1.7 2.4-1.7 2.4-1.7 2.5-1.7 2.5-1.7 2.5-1.6 2.5-1.6 2.5-1.6 2.5-1.6 2.5-1.6 2.6-1.5 2.6-1.5 2.6-1.5 2.6-1.5 2.6-1.5 2.6-1.4 2.6-1.4 2.6-1.4 2.7-1.4 2.7-1.4 2.7-1.3 2.7-1.3 2.7-1.3 2.7-1.3 2.7-1.3 2.7-1.2 2.8-1.2 2.8-1.2 2.8-1.2 2.8-1.2 2.8-1.1 2.8-1.1 2.8-1.1 2.8-1.1 2.8-1 2.8-1 2.9-1 5.7-1.9 3.7-0.6 3.5 0.6 3.2 1.6 2.6 2.5 1.7 3.3 0.6 3.6-0.6 3.5-1.6 3.2-2.5 2.5-3.3 1.7-5.4 1.8-2.7 0.9-2.7 1-2.7 1-2.7 1-2.6 1-2.6 1-2.6 1.1-2.6 1.1-2.6 1.1-2.6 1.1-2.6 1.1-2.6 1.2-2.6 1.2-2.5 1.2-2.5 1.2-2.5 1.2-2.5 1.3-2.5 1.3-2.5 1.3-2.5 1.3-2.5 1.3-2.5 1.4-2.4 1.4-2.4 1.4-2.4 1.4-2.4 1.4-2.4 1.5-2.4 1.5-2.4 1.5-2.4 1.5-2.3 1.5-2.3 1.5-2.3 1.6-2.3 1.6-2.3 1.6-2.3 1.6-2.3 1.6-2.3 1.7-2.2 1.7-2.2 1.7-2.2 1.7-2.2 1.7-2.2 1.7-2.2 1.8-2.2 1.8-2.1 1.8-2.1 1.8-2.1 1.8-2.1 1.8-2.1 1.9-2.1 1.9-2.1 1.9-2 1.9-2 1.9-2 1.9-2 2-2 2-2 2-2 2-1.9 2-1.9 2-1.9 2-1.9 2.1-1.9 2.1-1.9 2.1-1.8 2.1-1.8 2.1-1.8 2.1-1.8 2.2-1.8 2.2-1.8 2.2-1.7 2.2-1.7 2.2-1.7 2.2-1.7 2.2-1.7 2.3-1.7 2.3-1.6 2.3-1.6 2.3-1.6 2.3-1.6 2.3-1.6 2.3-1.5 2.4-1.5 2.4-1.5 2.4-1.5 2.4-1.5 2.4-1.5 2.4-1.4 2.4-1.7 2.8-1.4 2.5-1.4 2.5-1.4 2.5-1.3 2.5-1.3 2.5-1.3 2.5-1.3 2.5-1.2 2.5-2.5 5.2-1.2 2.6-1.2 2.6-1.2 2.6-1.1 2.6-1.1 2.6-1.1 2.6-1.1 2.6-1.1 2.6-1 2.6-1 2.6-1 2.6-1 2.6-0.9 2.7-0.9 2.7-0.9 2.7-0.9 2.7-0.9 2.7-0.8 2.7-0.8 2.7-0.8 2.7-0.8 2.7-0.7 2.7-0.7 2.7-0.7 2.7-0.7 2.7-0.7 2.7-0.6 2.7-0.6 2.7-0.6 2.7-0.6 2.7-0.6 2.7-0.5 2.7-0.5 2.7-0.5 2.7-0.5 2.8-0.4 2.8-0.4 2.8-0.4 2.8-0.4 2.8-0.4 2.8-0.3 2.8-0.3 2.8-0.3 2.8-0.3 2.8-0.2 2.8-0.2 2.8-0.2 2.8-0.2 2.8-0.2 2.8-0.1 2.8-0.1 2.8-0.1 2.8-0.1 2.8v14l0.1 2.8 0.1 2.8 0.1 2.8 0.1 2.8 0.2 2.8 0.2 2.8 0.2 2.8 0.2 2.8 0.2 2.8 0.3 2.8 0.3 2.8 0.3 2.8 0.3 2.8 0.4 2.8 0.4 2.8 0.4 2.8 0.4 2.8 0.4 2.8 0.5 2.8 0.5 2.8 0.5 2.8 0.5 2.8 0.6 2.8 0.6 2.8 0.6 2.7 0.6 2.7 0.6 2.7 0.7 2.7 0.7 2.7 0.7 2.7 0.7 2.7 0.8 2.7 0.8 2.7 0.8 2.7 0.8 2.7 0.8 2.7 0.9 2.7 0.9 2.7 0.9 2.7 1.1 1.9zM181 653c0-7.7 6.3-14 14-14s14 6.3 14 14-6.3 14-14 14-14-6.3-14-14zM468.8 178.7c-0.4-0.6-1.1-1-1.9-0.9l-8.3 1-5.5-6.3c-0.5-0.6-1.3-0.8-2-0.6-0.7 0.2-1.3 0.8-1.4 1.5l-1.6 8.2-7.7 3.3c-0.7 0.3-1.1 1-1.2 1.7 0 0.7 0.4 1.5 1 1.8l7.3 4.1 0.8 8.3c0.1 0.7 0.6 1.4 1.3 1.7 0.7 0.3 1.5 0.1 2-0.4l6.2-5.7 8.2 1.8c0.3 0.1 0.6 0.1 0.9 0 0.4-0.1 0.8-0.3 1-0.7 0.5-0.6 0.6-1.4 0.3-2.1l-3.5-7.6 4.3-7.2c0.2-0.5 0.2-1.3-0.2-1.9zM805.8 297.3c-0.2-0.7-0.8-1.2-1.6-1.4l-8.2-1.2-3.7-7.6c-0.3-0.7-1-1.1-1.8-1.1s-1.4 0.4-1.8 1.1l-3.7 7.6-8.2 1.2c-0.7 0.1-1.4 0.6-1.6 1.4-0.2 0.7 0 1.5 0.5 2l6 5.9-1.4 8.3c-0.1 0.8 0.2 1.5 0.8 1.9 0.6 0.4 1.4 0.5 2.1 0.2l7.4-3.9 7.4 3.9c0.3 0.2 0.6 0.2 0.9 0.2 0.4 0 0.8-0.1 1.2-0.4 0.6-0.4 0.9-1.2 0.8-1.9l-1.4-8.3 6-5.9c0.3-0.5 0.5-1.3 0.3-2zM550.8 826.9c-0.2-0.7-0.8-1.2-1.6-1.3l-8.2-1.2-3.7-7.3c-0.3-0.7-1-1.1-1.8-1.1s-1.4 0.4-1.8 1.1l-3.7 7.3-8.2 1.2c-0.7 0.1-1.4 0.6-1.6 1.3-0.2 0.7 0 1.5 0.5 2l6 5.7-1.4 8.1c-0.1 0.7 0.2 1.5 0.8 1.9 0.6 0.4 1.4 0.5 2.1 0.1l7.4-3.8 7.4 3.8c0.3 0.1 0.6 0.2 0.9 0.2 0.4 0 0.8-0.1 1.2-0.4 0.6-0.4 0.9-1.2 0.8-1.9l-1.4-8.1 6-5.7c0.3-0.4 0.5-1.2 0.3-1.9z" fill="#FFFFFF" p-id="1431"></path><path d="M247.4 576.2c0-0.7-0.4-1.4-1.1-1.8l-7.4-3.8-1.1-8.3c-0.1-0.7-0.6-1.4-1.3-1.6-0.7-0.2-1.5-0.1-2 0.5l-6 5.9-8.2-1.6c-0.7-0.1-1.5 0.2-1.9 0.7-0.5 0.6-0.5 1.4-0.2 2.1l3.8 7.5-4 7.3c-0.4 0.7-0.3 1.5 0.1 2.1 0.4 0.6 1.2 0.9 1.9 0.8l8.3-1.3 5.7 6.1c0.2 0.2 0.5 0.4 0.8 0.5 0.4 0.1 0.8 0.1 1.2 0 0.7-0.2 1.2-0.8 1.4-1.6l1.4-8.3 7.6-3.6c0.5-0.1 1-0.8 1-1.6zM800.8 654.3c-0.2-0.7-0.8-1.2-1.6-1.4l-8.2-1.2-3.7-7.6c-0.3-0.7-1-1.1-1.8-1.1s-1.4 0.4-1.8 1.1l-3.7 7.6-8.2 1.2c-0.7 0.1-1.4 0.6-1.6 1.4-0.2 0.7 0 1.5 0.5 2l6 5.9-1.4 8.3c-0.1 0.8 0.2 1.5 0.8 1.9 0.6 0.4 1.4 0.5 2.1 0.2l7.4-3.9 7.4 3.9c0.3 0.2 0.6 0.2 0.9 0.2 0.4 0 0.8-0.1 1.2-0.4 0.6-0.4 0.9-1.2 0.8-1.9l-1.4-8.3 6-5.9c0.3-0.5 0.5-1.3 0.3-2z" fill="#FFFFFF" p-id="1432"></path><path d="M303 489.5C303 374.3 396.6 281 512 281s209 93.3 209 208.5S627.4 698 512 698s-209-93.3-209-208.5z" fill="#8CD092" p-id="1433"></path><path d="M449.4 290l5.7 3.6c13.3 8.9 26.4 19.9 33.5 26 11.2 9.7 14.7 12.1 10.9 20-3.8 7.9-19.1 14.9-33.7 27.3-14.6 12.4-38.5 39.1-53.7 47.3-15.2 8.2-32.9-3.9-37.3 1.8-4.4 5.8 10.8 24.1 10.9 32.7 0.2 8.6-1.5 18.2-10 19.1-8.5 0.9-31.7-4.5-40.9-13.6s-9.9-22.7-14.6-40.9l-1.3-4.1 0.4-1.2c21.1-50 61.1-90 111.1-111.1l19-6.9zM403.5 472c8.8-0.9 8.8 18.6 19.9 23.6 11.2 5 35.4 1.1 47.1 6.3 11.8 5.3 16.2 20.1 23.6 25.4 7.4 5.3 20.4-3.3 20.8 6.3 0.5 9.7-12.8 38.7-18.1 51.7-5.3 13-8 17.7-13.6 26.3-5.6 8.6-14.4 15.1-19.9 25.4-5.6 10.3-7.7 32.8-13.6 36.3-5.9 3.5-17.4-6.3-21.8-15.4-4.4-9.1-4.5-39-4.5-39-2-16.9 0.3-50.5-7.3-62.6-7.6-12.1-30.5-0.8-38.1-10-7.6-9.2-11.8-32.9-7.3-45.3 4.7-12.3 24-28.1 32.8-29zM558.7 376c11.1 0.1 24.1 3.1 34 5.4 15.9 3.8 26.1 17.9 44.6 20.9 13.9 2.3 30.8 1.2 48.5-0.7l14.9-1.7 3.9 8c10.6 25 16.4 52.4 16.4 81.2 0 43.2-13.1 83.4-35.7 116.7l-4.6 6.2-3.2-0.9c-6.1-1.7-7.5-2.9-11.1-8.8-4.9-7.9-5.9-22-10-36.4s-11.4-36.5-14.6-50c-3.2-13.5 2.7-22.3-4.5-30.9-7.3-8.6-25.9-17.6-39.1-20.9-13.2-3.3-27.7 7.4-40 0.9s-30.9-25.8-33.7-40c-2.7-14.2 5.9-38.2 17.3-45.5 4.3-2.6 10.2-3.6 16.9-3.5zM615.5 308l13.1 8c16.6 11.2 31.5 24.8 44.2 40.3l8.1 10.9-7.2 0.6c-11.6 0.6-24.2 0.2-34.1-1-19.8-2.4-39.1-16.4-57.1-19.1-18-2.7-44.6 7-50.8 2.7-6.2-4.2 5.1-23.9 13.6-28.2 8.5-4.2 23 6.4 37.2 2.7 8.9-2.3 21.2-10 31.9-16.3l1.1-0.6z" fill="#FACC7E" p-id="1434" data-spm-anchor-id="a313x.7781069.0.i3" class="selected"></path><path d="M320.9 663.2c-10.3 0-19.7-0.5-27.9-1.5-24.6-2.9-39.1-10.3-44.1-22.3-7.8-18.7-3-39.7 14.3-62.6 12.3-16.2 28.3-29.9 39.6-38.6 4.4-3.4 10.7-2.5 14 1.9 3.4 4.4 2.5 10.7-1.9 14-14.2 10.9-59.7 48.7-47.6 77.6 3.1 7.4 31.5 15.8 97.1 9.1 54.9-5.6 115.9-19.9 155.4-36.3 82.2-34.2 183.1-121.1 225.8-180.9 3.2-4.5 9.5-5.5 13.9-2.3 4.5 3.2 5.5 9.5 2.3 13.9-22.8 31.9-60.2 70.1-102.7 104.7-45.5 37.1-92.3 66.6-131.7 83-41.1 17.1-104.3 31.9-161 37.7-16.5 1.7-31.8 2.6-45.5 2.6z" fill="#E6E5E5" p-id="1435"></path><path d="M817 222.9l1 1.2c6.6 10 7 23.4-0.1 34.1L715.3 411.9l-16.9-11.3-16.9-11.3 102.7-153.8c7.1-10.6 19.6-15.4 31.4-13.2l1.4 0.6z" fill="#FACC7E" p-id="1436"></path><path d="M792 242.8c1-1.5 3-1.9 4.5-0.9l10.8 7.2c1.5 1 1.9 3 0.9 4.5l-7.9 11.8c-1 1.5-3 1.9-4.5 0.9l-10.8-7.2c-1.5-1-1.9-3-0.9-4.5l7.9-11.8z" fill="#FFFFFF" p-id="1437"></path><path d="M768.3 258.9l34.1 22.7-13.1 19.6-34.1-22.7 13.1-19.6zM748.6 288.5l34.1 22.7-13.1 19.6-34.1-22.7 13.1-19.6zM728.8 318.2l34.1 22.7-13.1 19.6-34.1-22.7 13.1-19.6zM709 347.8l34.1 22.7-13.1 19.7-34.1-22.7 13.1-19.7z" fill="#F6A824" p-id="1438"></path><path d="M898 209.5l0.4 0.5 0.6 0.2-0.2 0.3 2.4 3c12.7 19.3 13.4 45-0.2 65.4L788.6 447l-33.1-22.1-1-0.7-33.1-22.1L833.8 234c13.6-20.4 37.7-29.6 60.3-25.3l3.7 1.1 0.2-0.3z" fill="#F97B6E" p-id="1439"></path><path d="M833.5 234.8l66.7 44.5-111.8 167.6-66.7-44.6 111.8-167.5z" fill="#E6E5E5" p-id="1440"></path><path d="M917.3 289.8l-1.5-0.5c-11.8-2.3-24.3 2.5-31.4 13.2L781.7 456.3l16.9 11.3 16.9 11.3 102.7-153.8c7.1-10.6 6.7-24 0.1-34.1l-1-1.2z" fill="#FACC7E" p-id="1441"></path><path d="M908.4 320.5c1-1.5 0.6-3.5-0.9-4.5l-10.8-7.2c-1.5-1-3.5-0.6-4.5 0.9l-7.9 11.8c-1 1.5-0.6 3.5 0.9 4.5l10.8 7.2c1.5 1 3.5 0.6 4.5-0.9l7.9-11.8z" fill="#FFFFFF" p-id="1442"></path><path d="M855.46 345.387l13.102-19.628 34.017 22.708-13.103 19.628zM835.717 375.07l13.103-19.628 34.016 22.708-13.103 19.628zM815.891 404.697l13.103-19.628 34.016 22.708-13.102 19.628zM796.066 434.325l13.102-19.629 34.017 22.708-13.103 19.628z" fill="#F6A824" p-id="1443"></path><path d="M876.7 242.9l1 1.2c6.6 10 7 23.4-0.1 34.1L774.9 432 758 420.7l-16.9-11.3 102.7-153.8c7.1-10.6 19.6-15.4 31.4-13.2l1.5 0.5z" fill="#FACC7E" p-id="1444"></path><path d="M848.7 273.9l-0.8 0.1h-0.8l-0.8-0.1-0.7-0.2-0.7-0.3-0.6-0.4-0.5-0.5-0.5-0.6-0.4-0.7-0.3-0.8-0.1-0.8v-0.8l0.1-0.8 0.2-0.7 0.3-0.7 0.4-0.6 0.5-0.5 0.6-0.5 0.7-0.4 0.8-0.3H859.3l0.1 0.1h0.1l0.1 0.1 0.1 0.1 0.1 0.1 0.1 0.1 0.1 0.1 0.1 0.1 0.1 0.1 0.1 0.1 0.1 0.1 0.1 0.1 0.1 0.1 0.1 0.1 0.1 0.1 0.1 0.1 0.1 0.1 0.1 0.1 0.1 0.1 0.1 0.1 0.1 0.1 0.1 0.1 0.1 0.1 0.1 0.1 0.1 0.1 0.1 0.1 0.1 0.1 0.1 0.1 0.1 0.1 0.3 0.2 0.1 0.1 0.1 0.1 0.1 0.1 0.1 0.1 0.1 0.1 0.1 0.1 0.1 0.1 0.1 0.1 0.1 0.1 0.1 0.1 0.1 0.1 0.1 0.1 0.1 0.1 0.1 0.1 0.1 0.1 0.1 0.1 0.1 0.1 0.1 0.1 0.1 0.1 0.1 0.1 0.1 0.1 0.1 0.1 0.1 0.1 0.1 0.1 0.1 0.1 0.1 0.1 0.1 0.1 0.1 0.1 0.1 0.1 0.1 0.1 0.1 0.1 0.1 0.1 0.1 0.1 0.1 0.1 0.1 0.1 0.1 0.1 0.1 0.1 0.1 0.1 0.1 0.1 0.1 0.1 0.1 0.1 0.1 0.1 0.1 0.1 0.1 0.1 0.1 0.1 0.1 0.1 0.1 0.1 0.1 0.1 0.1 0.1 0.1 0.1 0.1 0.1 0.1 0.1 0.1 0.1 0.1 0.1 0.1 0.1 0.1 0.1 0.1 0.1 0.1 0.1 0.1 0.1 0.1 0.1 0.1 0.1 0.1 0.1 0.1 0.1 0.1 0.1 0.1 0.1 0.1 0.1 0.1 0.1 0.1 0.1 0.1 0.1 0.1 0.1 0.1 0.1 0.1 0.1 0.1 0.1 0.1 0.1 0.1 0.1 0.1 0.1 0.1 0.1 0.1 0.1 0.1 0.1 0.1 0.1 0.1 0.1 0.1 0.1 0.1 0.1v2.6l0.1 0.3v1.6l-0.4 1.4-0.8 1.2-1.2 0.9-1.5 0.5h-1.6l-1.4-0.4-1.2-0.8-0.9-1.2-0.5-1.5V273.8l-0.1-0.1-0.1-0.1-0.1-0.1-0.1-0.1-0.1-0.1-0.1-0.1-0.1-0.1-0.1-0.1-0.1-0.1-0.1-0.1-0.1-0.1-0.1-0.1-0.1-0.1-0.1-0.1-0.1-0.1-0.1-0.1-0.1-0.1-0.1-0.1h-0.1l-0.1-0.1H857.9l-0.1-0.1H848.2l0.5 2.1z" fill="#5EC8FA" p-id="1445"></path><path d="M819.8 291.5l-78.2 117.1-70.9-47.3 1.4-2.1c4.2-6.4 10.7-15.7 20.3-19.3 12.7-4.8 30.3 4.3 52.5-4.2 19.4-7.5 54.8-33.1 73.7-43.6l1.2-0.6zM853.2 313.8L775 430.9l70.9 47.3 1.4-2c4.3-6.4 10.4-15.9 10.1-26.1-0.5-13.6-15.6-26.4-16.3-50.1-0.5-20.8 9.5-63.3 12-84.8l0.1-1.4z" fill="#CFCECE" p-id="1446"></path><path d="M757.8 369.4c8.1 5.4 10.2 16.3 4.8 24.3L749 414.3l-29.2-19.5 13.7-20.5c5.4-8.1 16.3-10.2 24.3-4.9z" fill="#F97B6E" p-id="1447"></path><path d="M727.2 383.8l29.1 19.4-7.3 11-29.1-19.4 7.3-11z" fill="#8CE8E4" p-id="1448"></path><path d="M800.5 398.5c8.1 5.4 10.2 16.3 4.8 24.3l-13.7 20.5-29.2-19.5 13.7-20.5c5.5-8 16.4-10.2 24.4-4.8z" fill="#F97B6E" p-id="1449"></path><path d="M769.9 412.8l29.1 19.4-7.3 11-29.1-19.4 7.3-11z" fill="#8CE8E4" p-id="1450"></path><path d="M787.1 373.7l0.5 0.5c3.4 3.7 4.6 8 2.8 10.7l-26.5 39.8-7.4-5-7.4-5 26.5-39.8c1.8-2.7 6.2-3.2 11-1.5l0.5 0.3z" fill="#FDEBCB" p-id="1451"></path></svg>