<?xml version="1.0" standalone="no"?><!DOCTYPE svg PUBLIC "-//W3C//DTD SVG 1.1//EN" "http://www.w3.org/Graphics/SVG/1.1/DTD/svg11.dtd"><svg t="1586514720490" class="icon" viewBox="0 0 1024 1024" version="1.1" xmlns="http://www.w3.org/2000/svg" p-id="1090" xmlns:xlink="http://www.w3.org/1999/xlink" width="200" height="200"><defs><style type="text/css"></style></defs><path d="M988.72 10H35.28C15.79 10 0 25.8 0 45.28v669.1c0 19.48 15.79 35.28 35.28 35.28h441.44v193.78H245.3c-19.49 0-35.28 15.8-35.28 35.28S225.81 1014 245.3 1014h533.4c19.49 0 35.28-15.8 35.28-35.28s-15.79-35.28-35.28-35.28H547.29V749.66h441.43c19.49 0 35.28-15.8 35.28-35.28V45.28C1024 25.8 1008.21 10 988.72 10z m-35.28 669.1H70.56V80.56h882.87V679.1z" p-id="1091"></path><path d="M274.6 501.54L388.82 385.7l100.77 134.33c6 7.99 15.1 13.07 25.06 13.97a35.254 35.254 0 0 0 27.15-9.28l256.72-238.06c14.29-13.25 15.13-35.56 1.88-49.85-13.28-14.33-35.6-15.14-49.87-1.88l-228 211.41-101.85-135.78a35.387 35.387 0 0 0-25.84-14.03c-10.13-0.53-20.28 3.12-27.51 10.45L224.34 452.01c-13.68 13.87-13.52 36.2 0.36 49.89 13.87 13.67 36.19 13.53 49.9-0.36z" p-id="1092"></path></svg>